:SAMPLES-PER-SECOND 30
:FULLY-SPECIFIED
:DEGREES
441
root  -15.3034 38.8932 27.6457 -178.152 -4.4725 171.693
RightUpLeg  -9.89327 -4.73785 -19.9926
RightLeg  28.7494 -8.34329 -5.16201
RightFoot  -9.36728 -0.441706 21.6565
RightToes  -1.74624e-010 0 -3.6325e-017
Spine  12.2261 3.0171 12.91
Spine1  11.0276 4.72331 -0.100103
HEad  -12.9705 -13.9546 -2.85728
LeftShoulder1  1.02174 -1.74666 -12.3724
LeftArm  19.6592 28.7537 -47.7087
LeftForeArm  50.3426 -77.7157 -57.9204
LeftHand  -2.39248 -3.26695 31.621
RightShoulder  0.499238 -0.331799 8.28727
RightArm  3.40174 10.6099 56.3389
RightForeArm  21.8507 76.5126 111.877
RightHand  -2.94079 3.84716 -36.0231
LeftUpLeg  -16.3351 -2.84732 3.85493
LeftLeg  18.2955 -8.29139 -2.71008
LeftFoot  0.589245 1.57834 -15.0857
LeftToes  -5.82109e-011 1.10366e-010 -8.03124e-011
442
root  -15.3247 38.6049 27.7101 -177.81 -4.17909 171.73
RightUpLeg  -10.4992 -5.87971 -20.3261
RightLeg  29.2465 -7.59902 -4.81079
RightFoot  -11.6053 -0.0271948 21.8808
RightToes  -1.74624e-010 0 -3.6325e-017
Spine  12.639 2.77146 14.5502
Spine1  10.394 5.11891 -1.48588
HEad  -14.0586 -13.9687 -3.734
LeftShoulder1  0.980229 -1.38909 -13.0075
LeftArm  16.7912 27.0347 -50.581
LeftForeArm  52.7299 -77.8556 -58.099
LeftHand  -2.51202 -3.74717 31.4542
RightShoulder  0.668421 0.313826 10.3077
RightArm  6.98008 6.04897 55.2416
RightForeArm  20.514 76.5749 111.223
RightHand  -2.225 2.14033 -33.5647
LeftUpLeg  -18.5409 -2.52475 3.8903
LeftLeg  22.0548 -4.28787 -1.56002
LeftFoot  -2.02938 1.3333 -16.1568
LeftToes  -5.82109e-011 1.10366e-010 -8.03124e-011
443
root  -15.4561 38.1981 27.8833 -177.471 -2.36124 172.285
RightUpLeg  -12.575 -8.15672 -20.4225
RightLeg  30.7243 -3.32498 -2.35817
RightFoot  -14.018 0.435438 22.4934
RightToes  -1.74624e-010 0 -3.6325e-017
Spine  13.9471 2.28328 16.2469
Spine1  9.71228 5.40004 -2.91573
HEad  -15.7307 -12.3632 -5.06384
LeftShoulder1  0.936994 -0.909644 -14.3256
LeftArm  12.6421 26.397 -54.7346
LeftForeArm  54.1703 -77.9104 -57.7142
LeftHand  -2.84414 -4.23229 33.6534
RightShoulder  0.783225 0.624308 11.943
RightArm  8.62828 3.86098 54.3445
RightForeArm  18.6727 76.7018 109.734
RightHand  -1.66387 0.761381 -30.9561
LeftUpLeg  -21.1159 -1.22354 4.74559
LeftLeg  27.2342 -0.501436 0.0532479
LeftFoot  -5.44241 0.896037 -16.6059
LeftToes  -5.82109e-011 1.10366e-010 -8.03124e-011
444
root  -15.6869 37.7339 28.1013 -177.203 1.0134 172.745
RightUpLeg  -16.0608 -9.41884 -20.4523
RightLeg  33.5747 0.348525 -0.00894806
RightFoot  -15.6142 0.757853 22.9095
RightToes  -1.74624e-010 0 -3.6325e-017
Spine  15.6745 1.72359 16.5075
Spine1  9.38097 5.30613 -3.60813
HEad  -17.5153 -9.03694 -6.60525
LeftShoulder1  0.894717 -0.453014 -15.8132
LeftArm  8.98221 25.7386 -59.1835
LeftForeArm  49.6596 -77.2041 -52.8448
LeftHand  -3.32414 -4.6579 37.3998
RightShoulder  0.836967 0.700461 12.9717
RightArm  9.34469 3.85172 54.3041
RightForeArm  19.3475 77.0418 104.725
RightHand  -1.68865 1.2645 -29.1087
LeftUpLeg  -23.0308 -0.0872393 6.11639
LeftLeg  32.7974 1.10603 1.10222
LeftFoot  -8.46272 0.444815 -15.5214
LeftToes  -5.82109e-011 1.10366e-010 -8.03124e-011
445
root  -16.0033 37.2272 28.265 -177.203 4.29906 172.737
RightUpLeg  -19.4998 -9.04922 -21.0241
RightLeg  36.9935 1.90722 1.27408
RightFoot  -16.852 1.02286 23.3373
RightToes  -1.74624e-010 0 -3.6325e-017
Spine  16.9564 1.08785 15.2116
Spine1  9.7856 4.5191 -3.11341
HEad  -19.0249 -5.07013 -8.2571
LeftShoulder1  0.904255 -0.375255 -16.5776
LeftArm  8.04281 23.1329 -62.5078
LeftForeArm  36.5461 -74.1924 -40.1195
LeftHand  -3.73091 -4.9641 40.4886
RightShoulder  0.888585 0.829662 13.631
RightArm  9.47931 4.79877 54.6262
RightForeArm  23.4083 77.3937 97.8734
RightHand  -1.85117 2.189 -28.0451
LeftUpLeg  -23.8709 0.195242 7.50882
LeftLeg  37.9671 1.49744 1.63712
LeftFoot  -10.718 0.137795 -13.6192
LeftToes  -5.82109e-011 1.10366e-010 -8.03124e-011
446
root  -16.396 36.7046 28.3314 -177.623 5.84273 172.498
RightUpLeg  -21.5289 -8.13473 -22.2032
RightLeg  40.214 2.75427 2.21516
RightFoot  -18.1934 1.35053 24.289
RightToes  -1.74624e-010 0 -3.6325e-017
Spine  17.3821 0.196132 13.1373
Spine1  10.9851 2.83249 -1.4367
HEad  -19.9869 -1.50661 -10.0155
LeftShoulder1  0.976826 -0.729922 -16.3325
LeftArm  9.86394 18.9888 -63.9285
LeftForeArm  24.4941 -68.5774 -27.613
LeftHand  -3.84886 -5.06126 41.2859
RightShoulder  0.946743 1.0874 13.7582
RightArm  9.66947 5.80471 54.7261
RightForeArm  24.79 77.6246 89.5696
RightHand  -1.73924 2.0069 -27.0342
LeftUpLeg  -23.8092 -0.403359 8.99583
LeftLeg  41.8839 2.81489 3.10818
LeftFoot  -12.0522 -0.00506801 -12.156
LeftToes  -5.82109e-011 1.10366e-010 -8.03124e-011
447
root  -16.8537 36.2515 28.3029 -178.288 5.76758 172.353
RightUpLeg  -22.0682 -7.20018 -23.4871
RightLeg  42.7377 3.00991 2.67512
RightFoot  -19.2257 1.64517 25.3996
RightToes  -1.74624e-010 0 -3.6325e-017
Spine  17.3919 -0.760192 10.7862
Spine1  12.2741 0.663025 0.998739
HEad  -20.2484 1.22565 -11.5475
LeftShoulder1  1.04389 -1.11431 -15.8152
LeftArm  11.7862 15.7677 -63.8509
LeftForeArm  18.5933 -62.7836 -20.5619
LeftHand  -3.71931 -5.00294 40.2124
RightShoulder  0.988119 1.33432 13.5343
RightArm  11.0357 6.39888 54.5877
RightForeArm  15.8089 77.3679 77.0431
RightHand  -1.50563 1.29386 -25.9471
LeftUpLeg  -23.0047 -1.43832 10.9629
LeftLeg  43.4796 4.94237 5.39117
LeftFoot  -12.2489 -0.0183789 -11.446
LeftToes  -5.82109e-011 1.10366e-010 -8.03124e-011
448
root  -17.4087 35.9336 28.1764 -178.883 5.21785 172.327
RightUpLeg  -21.7436 -6.10672 -24.7191
RightLeg  44.0449 2.14072 1.91475
RightFoot  -19.5465 1.7795 26.2411
RightToes  -1.74624e-010 0 -3.6325e-017
Spine  17.3772 -1.2798 8.96191
Spine1  12.9474 -0.912555 3.10261
HEad  -20.0411 2.62095 -12.1296
LeftShoulder1  1.05522 -1.17945 -15.7406
LeftArm  11.7477 15.006 -62.9539
LeftForeArm  14.9923 -59.1211 -17.7066
LeftHand  -3.48561 -4.74007 38.7879
RightShoulder  1.05876 1.62811 13.7541
RightArm  13.7575 5.63989 54.2519
RightForeArm  -0.508574 76.2026 63.1657
RightHand  -1.41522 0.996324 -25.5331
LeftUpLeg  -21.6679 -2.30057 13.2864
LeftLeg  42.3438 6.12513 6.34788
LeftFoot  -11.5353 0.0489362 -11.1638
LeftToes  -5.82109e-011 1.10366e-010 -8.03124e-011
449
root  -18.1498 35.8054 27.9527 -179.248 4.57565 172.225
RightUpLeg  -20.4917 -4.88084 -26.2523
RightLeg  43.3343 0.884952 0.595029
RightFoot  -19.0958 1.77025 27.5498
RightToes  -1.74624e-010 0 -3.6325e-017
Spine  17.0352 -1.09609 8.63387
Spine1  13.2479 -1.13411 4.02545
HEad  -19.7973 2.00624 -11.5028
LeftShoulder1  1.01555 -0.974156 -15.8988
LeftArm  11.0124 16.1079 -61.7818
LeftForeArm  11.5808 -58.2638 -17.4322
LeftHand  -3.19093 -4.14487 37.8141
RightShoulder  1.21323 2.1226 14.7731
RightArm  16.9572 3.04491 53.6151
RightForeArm  -14.4766 74.7158 53.8038
RightHand  -1.51288 1.28953 -26.0704
LeftUpLeg  -20.3119 -2.75583 15.2899
LeftLeg  39.0568 5.46503 5.13502
LeftFoot  -9.95617 0.208302 -12.0978
LeftToes  -5.82109e-011 1.10366e-010 -8.03124e-011
450
root  -19.1651 35.9372 27.6398 -179.392 3.51535 171.916
RightUpLeg  -17.723 -3.45212 -28.2781
RightLeg  39.8273 -0.334731 -0.58051
RightFoot  -17.4961 1.52088 29.9838
RightToes  -1.74624e-010 0 -3.6325e-017
Spine  16.103 -0.234627 9.70361
Spine1  13.4915 -0.223937 4.26197
HEad  -19.3301 -0.665168 -10.2296
LeftShoulder1  0.953395 -0.720376 -15.7776
LeftArm  12.0062 18.0538 -60.8154
LeftForeArm  10.8767 -59.4316 -18.4252
LeftHand  -3.00567 -3.66459 37.5293
RightShoulder  1.39228 2.61411 16.0949
RightArm  20.7418 0.0203446 52.7448
RightForeArm  -23.2057 73.6771 49.1701
RightHand  -1.72434 1.95742 -26.9919
LeftUpLeg  -19.3341 -3.40073 16.3681
LeftLeg  34.5965 3.38609 2.88432
LeftFoot  -7.2294 0.600742 -15.2195
LeftToes  -5.82109e-011 1.10366e-010 -8.03124e-011
451
root  -20.5046 36.3496 27.2243 -179.142 2.29414 171.463
RightUpLeg  -13.7125 -1.2566 -30.518
RightLeg  33.416 -3.34812 -2.56143
RightFoot  -13.7126 0.585095 32.1314
RightToes  -1.74624e-010 0 -3.6325e-017
Spine  14.681 1.20725 11.4458
Spine1  13.3017 1.29824 4.73334
HEad  -17.9902 -4.80191 -8.81194
LeftShoulder1  0.869829 -0.427024 -15.2903
LeftArm  15.1071 20.9175 -60.057
LeftForeArm  14.4549 -61.688 -20.0293
LeftHand  -3.04318 -3.7939 37.4699
RightShoulder  1.46871 2.76727 16.8176
RightArm  25.8137 -1.52931 51.8937
RightForeArm  -28.6007 73.6184 49.1143
RightHand  -1.79711 2.03962 -27.8058
LeftUpLeg  -18.4816 -5.14186 16.3405
LeftLeg  29.5741 0.355507 0.579306
LeftFoot  -4.36513 1.25404 -19.9701
LeftToes  -5.82109e-011 1.10366e-010 -8.03124e-011
452
root  -22.1052 36.8978 26.7174 -178.265 1.81802 170.925
RightUpLeg  -9.86243 2.1183 -32.6892
RightLeg  25.505 -10.1007 -5.31415
RightFoot  -7.4517 -1.11639 31.2889
RightToes  -1.74624e-010 0 -3.6325e-017
Spine  12.8464 3.06688 13.596
Spine1  12.6891 3.37028 4.78383
HEad  -16.1144 -9.86511 -7.33352
LeftShoulder1  0.75238 -0.0115586 -14.4892
LeftArm  19.2156 24.9815 -58.5199
LeftForeArm  19.8899 -65.3634 -23.4849
LeftHand  -3.0841 -4.15855 36.5837
RightShoulder  1.41867 2.66498 16.3527
RightArm  29.9949 -1.2168 51.528
RightForeArm  -27.5854 75.416 59.0932
RightHand  -1.43656 0.497069 -27.9899
LeftUpLeg  -17.4509 -7.58249 15.272
LeftLeg  24.8692 -3.57689 -1.47276
LeftFoot  -3.55638 1.7038 -24.5288
LeftToes  -5.82109e-011 1.10366e-010 -8.03124e-011
453
root  -23.7522 37.343 26.2477 -177.15 2.40155 170.362
RightUpLeg  -7.39636 4.24889 -34.396
RightLeg  18.735 -16.8933 -6.964
RightFoot  -0.784208 -2.55653 27.1664
RightToes  -1.74624e-010 0 -3.6325e-017
Spine  11.1376 4.9998 16.1552
Spine1  12.5373 5.95766 3.23044
HEad  -14.9367 -15.1823 -6.22337
LeftShoulder1  0.660796 0.273626 -13.4648
LeftArm  23.4341 29.1873 -55.127
LeftForeArm  25.5684 -70.3591 -31.0383
LeftHand  -2.88916 -4.06557 34.7297
RightShoulder  1.32938 2.57375 15.1227
RightArm  28.3062 0.926115 52.2697
RightForeArm  -11.5938 77.4323 85.0862
RightHand  -1.06093 -1.08688 -28.211
LeftUpLeg  -16.439 -8.37279 13.2272
LeftLeg  21.8562 -7.66793 -3.0603
LeftFoot  -5.44731 1.44089 -26.8764
LeftToes  -5.82109e-011 1.10366e-010 -8.03124e-011
454
root  -25.2529 37.5981 25.9945 -176.766 3.21677 170.014
RightUpLeg  -6.28582 1.84138 -34.942
RightLeg  15.6591 -17.674 -7.47872
RightFoot  3.21196 -3.00629 23.326
RightToes  -1.74624e-010 0 -3.6325e-017
Spine  10.9156 6.50665 18.348
Spine1  12.8748 8.33165 1.27176
HEad  -14.7312 -19.5135 -6.24653
LeftShoulder1  0.671637 0.0929704 -12.6211
LeftArm  26.4454 32.0607 -50.7731
LeftForeArm  33.226 -74.5821 -42.3169
LeftHand  -2.60872 -3.52834 33.361
RightShoulder  1.19374 2.23279 13.9438
RightArm  19.0095 5.98999 54.3488
RightForeArm  10.9588 76.5717 112.737
RightHand  -1.34332 -0.235051 -29.8019
LeftUpLeg  -15.5394 -6.19643 10.5731
LeftLeg  20.9948 -10.5978 -4.1448
LeftFoot  -8.34174 0.757266 -26.4313
LeftToes  -5.82109e-011 1.10366e-010 -8.03124e-011
